<?xml version="1.0" encoding="UTF-8" standalone="no"?>
<!DOCTYPE svg PUBLIC "-//W3C//DTD SVG 1.1//EN"
 "http://www.w3.org/Graphics/SVG/1.1/DTD/svg11.dtd">
<!-- Generated by graphviz version 3.0.0 (0)
 -->
<!-- Pages: 1 -->
<svg width="1166pt" height="123pt"
 viewBox="0.00 0.00 1166.39 123.00" xmlns="http://www.w3.org/2000/svg" xmlns:xlink="http://www.w3.org/1999/xlink">
<g id="graph0" class="graph" transform="scale(1 1) rotate(0) translate(4 119)">
<polygon fill="white" stroke="transparent" points="-4,4 -4,-119 1162.39,-119 1162.39,4 -4,4"/>
<!-- 94612143069888 -->
<g id="node1" class="node">
<title>94612143069888</title>
<polygon fill="none" stroke="black" points="0,-66.5 0,-102.5 175,-102.5 175,-66.5 0,-66.5"/>
<text text-anchor="middle" x="49" y="-80.8" font-family="Times,serif" font-size="14.00">data &#45;4.000</text>
<polyline fill="none" stroke="black" points="98,-66.5 98,-102.5 "/>
<text text-anchor="middle" x="136.5" y="-80.8" font-family="Times,serif" font-size="14.00">grad 2.0</text>
</g>
<!-- __add94612143070720 -->
<g id="node4" class="node">
<title>__add94612143070720</title>
<ellipse fill="none" stroke="black" cx="240.25" cy="-42.5" rx="27.9" ry="18"/>
<text text-anchor="middle" x="240.25" y="-38.8" font-family="Times,serif" font-size="14.00">add</text>
</g>
<!-- 94612143069888&#45;&gt;__add94612143070720 -->
<g id="edge2" class="edge">
<title>94612143069888&#45;&gt;__add94612143070720</title>
<path fill="none" stroke="black" d="M153.31,-66.44C170.81,-61.57 189.09,-56.47 204.27,-52.24"/>
<polygon fill="black" stroke="black" points="205.54,-55.52 214.24,-49.47 203.67,-48.78 205.54,-55.52"/>
</g>
<!-- relu94612143071504 -->
<g id="node8" class="node">
<title>relu94612143071504</title>
<ellipse fill="none" stroke="black" cx="240.25" cy="-96.5" rx="29.5" ry="18"/>
<text text-anchor="middle" x="240.25" y="-92.8" font-family="Times,serif" font-size="14.00">relu</text>
</g>
<!-- 94612143069888&#45;&gt;relu94612143071504 -->
<g id="edge8" class="edge">
<title>94612143069888&#45;&gt;relu94612143071504</title>
<path fill="none" stroke="black" d="M175.32,-91.41C184.24,-92.12 192.94,-92.81 200.9,-93.45"/>
<polygon fill="black" stroke="black" points="200.66,-96.94 210.91,-94.24 201.22,-89.96 200.66,-96.94"/>
</g>
<!-- 94612143070016 -->
<g id="node2" class="node">
<title>94612143070016</title>
<polygon fill="none" stroke="black" points="2.5,-0.5 2.5,-36.5 172.5,-36.5 172.5,-0.5 2.5,-0.5"/>
<text text-anchor="middle" x="49" y="-14.8" font-family="Times,serif" font-size="14.00">data 2.000</text>
<polyline fill="none" stroke="black" points="95.5,-0.5 95.5,-36.5 "/>
<text text-anchor="middle" x="134" y="-14.8" font-family="Times,serif" font-size="14.00">grad 0.0</text>
</g>
<!-- 94612143070016&#45;&gt;__add94612143070720 -->
<g id="edge3" class="edge">
<title>94612143070016&#45;&gt;__add94612143070720</title>
<path fill="none" stroke="black" d="M172.69,-31.9C183.27,-33.59 193.62,-35.24 202.89,-36.71"/>
<polygon fill="black" stroke="black" points="202.41,-40.18 212.84,-38.3 203.51,-33.27 202.41,-40.18"/>
</g>
<!-- __mul94612143071184 -->
<g id="node6" class="node">
<title>__mul94612143071184</title>
<ellipse fill="none" stroke="black" cx="594.49" cy="-41.5" rx="28.7" ry="18"/>
<text text-anchor="middle" x="594.49" y="-37.8" font-family="Times,serif" font-size="14.00">mul</text>
</g>
<!-- 94612143070016&#45;&gt;__mul94612143071184 -->
<g id="edge6" class="edge">
<title>94612143070016&#45;&gt;__mul94612143071184</title>
<path fill="none" stroke="black" d="M172.54,-12.02C252.13,-7.27 374.84,-3.5 480.49,-15.5 506.91,-18.5 536.15,-25.33 558.27,-31.23"/>
<polygon fill="black" stroke="black" points="557.63,-34.68 568.2,-33.95 559.48,-27.93 557.63,-34.68"/>
</g>
<!-- 94612143070720 -->
<g id="node3" class="node">
<title>94612143070720</title>
<polygon fill="none" stroke="black" points="305.49,-25.5 305.49,-61.5 480.49,-61.5 480.49,-25.5 305.49,-25.5"/>
<text text-anchor="middle" x="354.49" y="-39.8" font-family="Times,serif" font-size="14.00">data &#45;2.000</text>
<polyline fill="none" stroke="black" points="403.49,-25.5 403.49,-61.5 "/>
<text text-anchor="middle" x="441.99" y="-39.8" font-family="Times,serif" font-size="14.00">grad 2.0</text>
</g>
<!-- 94612143070720&#45;&gt;__mul94612143071184 -->
<g id="edge5" class="edge">
<title>94612143070720&#45;&gt;__mul94612143071184</title>
<path fill="none" stroke="black" d="M480.63,-42.63C506.9,-42.37 534.4,-42.09 555.68,-41.88"/>
<polygon fill="black" stroke="black" points="555.93,-45.38 565.89,-41.78 555.86,-38.38 555.93,-45.38"/>
</g>
<!-- __add94612143070720&#45;&gt;94612143070720 -->
<g id="edge1" class="edge">
<title>__add94612143070720&#45;&gt;94612143070720</title>
<path fill="none" stroke="black" d="M268.2,-42.68C276.12,-42.73 285.27,-42.79 294.95,-42.86"/>
<polygon fill="black" stroke="black" points="295.17,-46.36 305.19,-42.92 295.22,-39.36 295.17,-46.36"/>
</g>
<!-- 94612143071184 -->
<g id="node5" class="node">
<title>94612143071184</title>
<polygon fill="none" stroke="black" points="708.49,-27.5 708.49,-63.5 869.49,-63.5 869.49,-27.5 708.49,-27.5"/>
<text text-anchor="middle" x="757.49" y="-41.8" font-family="Times,serif" font-size="14.00">data &#45;4.000</text>
<polyline fill="none" stroke="black" points="806.49,-27.5 806.49,-63.5 "/>
<text text-anchor="middle" x="837.99" y="-41.8" font-family="Times,serif" font-size="14.00">grad 1</text>
</g>
<!-- __add94612143071968 -->
<g id="node10" class="node">
<title>__add94612143071968</title>
<ellipse fill="none" stroke="black" cx="933.44" cy="-68.5" rx="27.9" ry="18"/>
<text text-anchor="middle" x="933.44" y="-64.8" font-family="Times,serif" font-size="14.00">add</text>
</g>
<!-- 94612143071184&#45;&gt;__add94612143071968 -->
<g id="edge10" class="edge">
<title>94612143071184&#45;&gt;__add94612143071968</title>
<path fill="none" stroke="black" d="M869.55,-58.34C878.87,-59.85 888,-61.32 896.28,-62.66"/>
<polygon fill="black" stroke="black" points="895.84,-66.14 906.27,-64.27 896.96,-59.23 895.84,-66.14"/>
</g>
<!-- __mul94612143071184&#45;&gt;94612143071184 -->
<g id="edge4" class="edge">
<title>__mul94612143071184&#45;&gt;94612143071184</title>
<path fill="none" stroke="black" d="M623.49,-42.08C643.27,-42.49 670.99,-43.07 698.04,-43.63"/>
<polygon fill="black" stroke="black" points="698.29,-47.14 708.36,-43.85 698.43,-40.14 698.29,-47.14"/>
</g>
<!-- 94612143071504 -->
<g id="node7" class="node">
<title>94612143071504</title>
<polygon fill="none" stroke="black" points="516.49,-78.5 516.49,-114.5 672.49,-114.5 672.49,-78.5 516.49,-78.5"/>
<text text-anchor="middle" x="562.99" y="-92.8" font-family="Times,serif" font-size="14.00">data 0.000</text>
<polyline fill="none" stroke="black" points="609.49,-78.5 609.49,-114.5 "/>
<text text-anchor="middle" x="640.99" y="-92.8" font-family="Times,serif" font-size="14.00">grad 1</text>
</g>
<!-- 94612143071504&#45;&gt;__add94612143071968 -->
<g id="edge11" class="edge">
<title>94612143071504&#45;&gt;__add94612143071968</title>
<path fill="none" stroke="black" d="M672.8,-90.08C742.56,-84.28 842.17,-76 895.46,-71.57"/>
<polygon fill="black" stroke="black" points="895.8,-75.06 905.47,-70.74 895.22,-68.08 895.8,-75.06"/>
</g>
<!-- relu94612143071504&#45;&gt;94612143071504 -->
<g id="edge7" class="edge">
<title>relu94612143071504&#45;&gt;94612143071504</title>
<path fill="none" stroke="black" d="M269.77,-96.5C320.64,-96.5 428.9,-96.5 506.21,-96.5"/>
<polygon fill="black" stroke="black" points="506.43,-100 516.43,-96.5 506.43,-93 506.43,-100"/>
</g>
<!-- 94612143071968 -->
<g id="node9" class="node">
<title>94612143071968</title>
<polygon fill="none" stroke="black" points="997.39,-50.5 997.39,-86.5 1158.39,-86.5 1158.39,-50.5 997.39,-50.5"/>
<text text-anchor="middle" x="1046.39" y="-64.8" font-family="Times,serif" font-size="14.00">data &#45;4.000</text>
<polyline fill="none" stroke="black" points="1095.39,-50.5 1095.39,-86.5 "/>
<text text-anchor="middle" x="1126.89" y="-64.8" font-family="Times,serif" font-size="14.00">grad 1</text>
</g>
<!-- __add94612143071968&#45;&gt;94612143071968 -->
<g id="edge9" class="edge">
<title>__add94612143071968&#45;&gt;94612143071968</title>
<path fill="none" stroke="black" d="M961.57,-68.5C969.22,-68.5 977.98,-68.5 987.19,-68.5"/>
<polygon fill="black" stroke="black" points="987.32,-72 997.32,-68.5 987.32,-65 987.32,-72"/>
</g>
</g>
</svg>
